<svg version="1.1" xmlns="http://www.w3.org/2000/svg" xmlns:xlink="http://www.w3.org/1999/xlink" width="54.33693" height="79.4199" viewBox="0,0,54.33693,79.4199"><g transform="translate(-227.8466,-150.6927)"><g data-paper-data="{&quot;isPaintingLayer&quot;:true}" fill-rule="nonzero" stroke="none" stroke-width="0.7942" stroke-linecap="butt" stroke-linejoin="miter" stroke-miterlimit="10" stroke-dasharray="" stroke-dashoffset="0" style="mix-blend-mode: normal"><path d="M261.96524,150.6927c1.26365,0 2.52731,0 3.79096,0c0.47892,5.2592 4.84093,8.0762 6.31811,12.7072c-2.45268,5.5451 -8.49919,6.2837 -13.90003,11.1188c9.212,6.3877 22.68116,10.1006 24.00925,21.4433c0,1.0587 0,2.1182 0,3.1768c-5.2099,13.4037 -12.65292,25.404 -30.32752,30.9738c-2.10662,0 -4.21181,0 -6.31827,0c-6.21596,-4.0354 -11.27312,-8.799 -15.16384,-14.2956c8.05575,-5.0876 21.4479,-7.7903 21.4821,-15.0898c0.04169,-8.8378 -23.06175,-11.604 -24.00941,-21.4433c0,-1.324 0,-2.6471 0,-3.971c6.173,-11.4754 14.98691,-21.2901 34.11864,-24.6202zM237.95583,164.9883c-0.36277,9.7297 -3.02389,13.3648 5.05461,19.0607c5.44761,3.8416 14.3702,5.0043 16.42749,8.7362c4.1636,7.5544 -4.06527,15.7887 -15.16384,19.855c1.41274,3.8773 2.81911,7.7585 8.84557,8.7362c12.51386,-8.2438 30.67247,-16.8251 24.00925,-30.1796c-4.14212,-8.3017 -25.68484,-10.4548 -26.53656,-18.2665c-0.63946,-5.8604 8.76459,-9.2445 16.42733,-9.5304c-2.21131,-3.1109 -2.56263,-7.39 -6.31811,-9.5304c-8.41979,3.18 -17.45359,5.9732 -22.74576,11.1188z" fill="#000000"/><path d="M260.70158,153.8695c3.75548,2.1404 4.10679,6.4195 6.31811,9.5304c-7.66275,0.2859 -17.0668,3.67 -16.42733,9.5304c0.85172,7.8117 22.39444,9.9648 26.53656,18.2665c6.66322,13.3545 -11.49539,21.9358 -24.00925,30.1796c-6.02646,-0.9777 -7.43283,-4.8589 -8.84557,-8.7362c11.09857,-4.0663 19.32743,-12.3006 15.16384,-19.855c-2.05729,-3.7319 -10.97988,-4.8946 -16.42749,-8.7362c-8.0785,-5.6959 -5.41738,-9.331 -5.05461,-19.0607c5.29216,-5.1456 14.32596,-7.9388 22.74576,-11.1188z" fill="#ff9400"/></g></g></svg>