<svg version="1.1" xmlns="http://www.w3.org/2000/svg" xmlns:xlink="http://www.w3.org/1999/xlink" width="48.18254" height="100.08489" viewBox="0,0,48.18254,100.08489"><g transform="translate(-228.09276,-136.90685)"><g data-paper-data="{&quot;isPaintingLayer&quot;:true}" fill-rule="nonzero" stroke-linejoin="miter" stroke-miterlimit="10" stroke-dasharray="" stroke-dashoffset="0" style="mix-blend-mode: normal"><path d="M258.34702,136.90686c1.12052,0 2.24106,0 3.36158,0c0.42467,5.2592 4.29262,8.0762 5.60249,12.7072c-2.17489,5.5451 -7.53653,6.2837 -12.32565,11.1188c8.16862,6.3877 20.11221,10.1006 21.28987,21.4433c0,1.0587 0,2.1182 0,3.1768c-4.61981,13.4037 -11.2198,25.404 -26.89251,30.9738c-1.86802,0 -3.73476,0 -5.60264,0c-5.51191,-4.0354 -9.99628,-8.799 -13.44633,-14.2956c7.14333,-5.0876 19.01863,-7.7903 19.04896,-15.0898c0.03697,-8.8378 -20.44969,-11.604 -21.29002,-21.4433c0,-1.324 0,-2.6471 0,-3.971c5.47382,-11.4754 13.28944,-21.2901 30.25424,-24.6202zM237.057,151.20246c-0.32168,9.7297 -2.68139,13.3648 4.48211,19.0607c4.8306,3.8416 12.74257,5.0043 14.56685,8.7362c3.69201,7.5544 -3.60482,15.7887 -13.44633,19.855c1.25272,3.8773 2.49981,7.7585 7.84369,8.7362c11.09649,-8.2438 27.19839,-16.8251 21.28988,-30.1796c-3.67296,-8.3017 -22.77568,-10.4548 -23.53093,-18.2665c-0.56704,-5.8604 7.77188,-9.2445 14.56671,-9.5304c-1.96085,-3.1109 -2.27237,-7.39 -5.60249,-9.5304c-7.46614,3.18 -15.47674,5.9732 -20.16949,11.1188z" fill="#000000" stroke="none" stroke-width="0.7942" stroke-linecap="butt"/><path d="M257.2265,140.08365c3.33012,2.1404 3.64164,6.4195 5.60249,9.5304c-6.79483,0.2859 -15.13375,3.67 -14.56671,9.5304c0.75525,7.8117 19.85797,9.9648 23.53093,18.2665c5.90852,13.3545 -10.19338,21.9358 -21.28988,30.1796c-5.34388,-0.9777 -6.59097,-4.8589 -7.84369,-8.7362c9.84151,-4.0663 17.13833,-12.3006 13.44633,-19.855c-1.82428,-3.7319 -9.73625,-4.8946 -14.56685,-8.7362c-7.1635,-5.6959 -4.80379,-9.331 -4.48211,-19.0607c4.69276,-5.1456 12.70336,-7.9388 20.16949,-11.1188z" fill="#ff9400" stroke="none" stroke-width="0.7942" stroke-linecap="butt"/><g fill="none" stroke-linecap="round"><path d="M264.19548,217.45207c0,0 5.028,2.62709 5.09371,4.43393c0.0904,2.48598 -4.60136,9.10575 -4.60136,9.10575" stroke="#000000" stroke-width="12"/><path d="M264.11901,217.37559c0,0 5.028,2.62709 5.0937,4.43393c0.0904,2.48598 -4.60135,9.10575 -4.60135,9.10575" stroke="#ff9400" stroke-width="5"/></g></g></g></svg>